<svg xmlns="http://www.w3.org/2000/svg" xmlns:xlink="http://www.w3.org/1999/xlink" width="500" zoomAndPan="magnify" viewBox="0 0 375 374.999991" height="500" preserveAspectRatio="xMidYMid meet" version="1.0"><defs><clipPath id="d074012a1d"><path d="M 24.226562 24.226562 L 350.773438 24.226562 L 350.773438 350.773438 L 24.226562 350.773438 Z M 24.226562 24.226562 " clip-rule="nonzero"/></clipPath><clipPath id="dab9d4bd9e"><path d="M 187.5 24.226562 C 97.328125 24.226562 24.226562 97.328125 24.226562 187.5 C 24.226562 277.671875 97.328125 350.773438 187.5 350.773438 C 277.671875 350.773438 350.773438 277.671875 350.773438 187.5 C 350.773438 97.328125 277.671875 24.226562 187.5 24.226562 Z M 187.5 24.226562 " clip-rule="nonzero"/></clipPath><clipPath id="ac18d1bb15"><path d="M 0.226562 0.226562 L 326.773438 0.226562 L 326.773438 326.773438 L 0.226562 326.773438 Z M 0.226562 0.226562 " clip-rule="nonzero"/></clipPath><clipPath id="594051260a"><path d="M 163.5 0.226562 C 73.328125 0.226562 0.226562 73.328125 0.226562 163.5 C 0.226562 253.671875 73.328125 326.773438 163.5 326.773438 C 253.671875 326.773438 326.773438 253.671875 326.773438 163.5 C 326.773438 73.328125 253.671875 0.226562 163.5 0.226562 Z M 163.5 0.226562 " clip-rule="nonzero"/></clipPath><clipPath id="e8516adde0"><rect x="0" width="327" y="0" height="327"/></clipPath><clipPath id="fcb6597a8f"><path d="M 18 255 L 234 255 L 234 330.816406 L 18 330.816406 Z M 18 255 " clip-rule="nonzero"/></clipPath><clipPath id="8b80e0b139"><path d="M 282 44.316406 L 314 44.316406 L 314 76 L 282 76 Z M 282 44.316406 " clip-rule="nonzero"/></clipPath></defs><g clip-path="url(#d074012a1d)"><g clip-path="url(#dab9d4bd9e)"><g transform="matrix(1, 0, 0, 1, 24, 24)"><g clip-path="url(#e8516adde0)"><g clip-path="url(#ac18d1bb15)"><g clip-path="url(#594051260a)"><path fill="#ffffff" d="M 0.226562 0.226562 L 326.773438 0.226562 L 326.773438 326.773438 L 0.226562 326.773438 Z M 0.226562 0.226562 " fill-opacity="1" fill-rule="nonzero"/></g></g></g></g></g></g><g clip-path="url(#fcb6597a8f)"><path fill="#656363" d="M 83.464844 330.675781 C 73.09375 330.675781 64.613281 328.40625 58.628906 326.058594 C 37.355469 317.65625 21.53125 298.5 18.347656 277.144531 L 33.871094 287.59375 L 41.066406 273.738281 C 43.03125 286.914062 53.480469 299.332031 67.035156 304.707031 C 84.527344 311.597656 105.273438 306.601562 125.261719 290.699219 C 144.644531 275.253906 162.058594 264.730469 176.898438 259.351562 C 190.074219 254.582031 201.734375 253.75 211.503906 256.855469 C 227.933594 262.003906 232.476562 275.933594 233.003906 277.523438 L 210.972656 284.035156 C 210.972656 284.035156 210.972656 284.113281 211.046875 284.339844 C 210.894531 283.886719 209.304688 280.097656 204.15625 278.585938 C 186.289062 273.585938 153.050781 297.96875 139.570312 308.644531 C 118.144531 325.679688 98.761719 330.675781 83.464844 330.675781 Z M 83.464844 330.675781 " fill-opacity="1" fill-rule="nonzero"/></g><path fill="#656363" d="M 317.882812 121.171875 C 296.605469 121.019531 272.152344 109.28125 243.53125 85.433594 C 233.914062 77.480469 224.523438 74.300781 214.683594 75.890625 C 191.132812 79.601562 172.8125 108.222656 172.582031 108.449219 L 153.125 96.257812 C 154.109375 94.746094 177.125 58.628906 210.972656 53.253906 C 227.476562 50.601562 243.378906 55.523438 258.144531 67.789062 C 286.234375 91.1875 308.796875 101.179688 325.152344 97.472656 C 336.511719 94.898438 346.277344 85.054688 354.074219 68.167969 L 358.242188 87.402344 L 374.898438 77.785156 C 363.917969 101.484375 348.925781 115.644531 330.226562 119.882812 C 326.210938 120.714844 322.125 121.171875 317.882812 121.171875 Z M 317.882812 121.171875 " fill-opacity="1" fill-rule="nonzero"/><g clip-path="url(#8b80e0b139)"><path fill="#d1d1d1" d="M 294.183594 44.316406 L 294.03125 51.664062 C 293.957031 54.917969 292.367188 57.945312 289.792969 59.992188 L 282.144531 65.898438 L 288.882812 64.6875 C 293.125 63.929688 297.363281 65.972656 299.484375 69.683594 L 302.96875 75.96875 L 302.511719 66.882812 C 302.363281 63.550781 304.179688 60.445312 307.132812 59.007812 L 313.71875 55.75 L 305.617188 55.976562 C 301.90625 56.054688 298.5 53.933594 296.910156 50.527344 Z M 294.183594 44.316406 " fill-opacity="1" fill-rule="nonzero"/></g><path fill="#d1d1d1" d="M 30.085938 200.824219 L 26.527344 228.382812 C 25.46875 232.09375 22.742188 235.199219 19.105469 236.714844 L 0.101562 240.347656 L 16.683594 241.863281 C 21.832031 242.316406 26.148438 245.949219 27.4375 250.871094 L 30.765625 271.542969 L 31.828125 248.523438 C 32.660156 244.664062 35.6875 241.636719 39.550781 240.800781 L 60.75 238.605469 L 38.71875 236.863281 C 34.402344 235.878906 31.070312 232.320312 30.3125 227.929688 Z M 30.085938 200.824219 " fill-opacity="1" fill-rule="nonzero"/><path fill="#d1d1d1" d="M 334.085938 256.25 L 335.828125 264.578125 C 336.585938 268.289062 335.675781 272.148438 333.328125 275.101562 L 326.289062 283.808594 L 333.632812 280.628906 C 338.25 278.660156 343.550781 279.796875 346.957031 283.429688 L 352.636719 289.5625 L 349.683594 279.417969 C 348.625 275.707031 349.835938 271.769531 352.789062 269.273438 L 359.300781 263.820312 L 350.214844 266.242188 C 346.050781 267.378906 341.582031 265.863281 338.933594 262.457031 Z M 334.085938 256.25 " fill-opacity="1" fill-rule="nonzero"/><path fill="#d1d1d1" d="M 309.859375 292.515625 L 309.707031 297.664062 C 309.628906 299.9375 308.570312 302.058594 306.753906 303.496094 L 301.378906 307.660156 L 306.148438 306.828125 C 309.101562 306.296875 312.128906 307.734375 313.566406 310.386719 L 316.066406 314.777344 L 315.761719 308.417969 C 315.6875 306.070312 316.898438 303.949219 319.019531 302.890625 L 323.636719 300.617188 L 317.960938 300.769531 C 315.308594 300.84375 312.960938 299.332031 311.902344 296.984375 Z M 309.859375 292.515625 " fill-opacity="1" fill-rule="nonzero"/><path fill="#ffffff" d="M 180.078125 119.582031 C 165.921875 213.089844 187.878906 261.699219 187.878906 261.699219 C 187.878906 261.699219 207.109375 307.960938 236.488281 312.355469 C 262.535156 316.214844 293.425781 277.523438 293.425781 277.523438 C 293.425781 277.523438 336.28125 224.824219 339.007812 140.933594 C 335.148438 124.046875 307.132812 126.773438 307.132812 126.773438 C 307.132812 126.773438 283.355469 130.105469 261.097656 125.789062 C 238.835938 121.472656 201.054688 110.871094 201.054688 110.871094 C 201.054688 110.871094 185.53125 106.101562 180.078125 119.582031 Z M 180.078125 119.582031 " fill-opacity="1" fill-rule="nonzero"/><path fill="#656363" d="M 18.425781 112.007812 C 32.28125 205.59375 67.566406 245.648438 67.566406 245.648438 C 67.566406 245.648438 99.441406 284.261719 128.894531 279.871094 C 154.941406 275.933594 173.191406 229.898438 173.191406 229.898438 C 173.191406 229.898438 198.78125 166.902344 176.75 85.960938 C 168.039062 70.894531 142.070312 81.644531 142.070312 81.644531 C 142.070312 81.644531 120.339844 91.792969 97.777344 94.214844 C 75.210938 96.636719 36.066406 97.546875 36.066406 97.546875 C 36.066406 97.546875 19.710938 97.546875 18.425781 112.007812 Z M 18.425781 112.007812 " fill-opacity="1" fill-rule="nonzero"/><path fill="#000000" d="M 206.960938 242.542969 C 212.335938 238.984375 223.996094 230.277344 246.785156 234.214844 C 280.554688 239.96875 283.960938 252.691406 285.25 257.082031 C 289.792969 272.375 272.300781 291.683594 263.066406 276.996094 C 252.085938 259.578125 229.902344 262.910156 226.265625 265.257812 C 221.34375 268.4375 214.152344 270.9375 207.566406 268.515625 C 197.875 265.03125 196.964844 249.207031 206.960938 242.542969 Z M 206.960938 242.542969 " fill-opacity="1" fill-rule="nonzero"/><path fill="#000000" d="M 195.296875 178.410156 C 195.296875 178.410156 202.265625 174.851562 213.320312 175.535156 C 224.375 176.214844 233.535156 180.835938 238.230469 188.105469 C 241.257812 192.796875 241.03125 198.402344 236.714844 200.519531 C 225.964844 205.820312 219.980469 197.945312 217.03125 196.128906 C 208.925781 191.054688 202.492188 189.542969 196.359375 190.070312 C 189.242188 190.679688 187.953125 183.257812 195.296875 178.410156 Z M 195.296875 178.410156 " fill-opacity="1" fill-rule="nonzero"/><path fill="#000000" d="M 185 173.566406 C 185.457031 172.960938 194.085938 160.46875 208.171875 157.285156 C 222.027344 154.183594 240.804688 164.101562 247.46875 172.429688 C 247.46875 174.703125 244.210938 179.472656 244.210938 179.472656 C 244.210938 179.472656 229.445312 165.085938 209.382812 165.160156 C 191.589844 167.355469 185 173.566406 185 173.566406 Z M 185 173.566406 " fill-opacity="1" fill-rule="nonzero"/><path fill="#000000" d="M 312.507812 195.75 C 312.507812 195.75 306.90625 190.300781 296.152344 187.726562 C 285.402344 185.152344 275.332031 186.890625 268.667969 192.496094 C 264.351562 196.128906 262.988281 201.503906 266.472656 204.835938 C 275.179688 213.015625 283.207031 207.261719 286.535156 206.351562 C 295.773438 203.851562 302.363281 204.308594 308.039062 206.578125 C 314.703125 209.226562 318.035156 202.488281 312.507812 195.75 Z M 312.507812 195.75 " fill-opacity="1" fill-rule="nonzero"/><path fill="#000000" d="M 323.714844 194.085938 C 323.410156 193.402344 318.867188 178.867188 306.375 171.75 C 294.03125 164.707031 273.136719 168.71875 264.351562 174.777344 C 263.671875 176.972656 265.414062 182.5 265.414062 182.5 C 265.414062 182.5 283.734375 173.035156 302.890625 179.019531 C 319.246094 186.285156 323.714844 194.085938 323.714844 194.085938 Z M 323.714844 194.085938 " fill-opacity="1" fill-rule="nonzero"/><path fill="#000000" d="M 50.226562 163.796875 C 50.226562 163.796875 55.828125 158.347656 66.582031 155.773438 C 77.332031 153.199219 87.402344 154.941406 94.066406 160.542969 C 98.382812 164.175781 99.746094 169.554688 96.261719 172.882812 C 87.554688 181.0625 79.527344 175.308594 76.195312 174.398438 C 66.960938 171.976562 60.371094 172.355469 54.695312 174.703125 C 48.03125 177.277344 44.699219 170.539062 50.226562 163.796875 Z M 50.226562 163.796875 " fill-opacity="1" fill-rule="nonzero"/><path fill="#000000" d="M 38.945312 162.207031 C 39.246094 161.527344 43.789062 146.988281 56.285156 139.871094 C 68.625 132.832031 89.523438 136.84375 98.304688 142.902344 C 98.988281 145.097656 97.246094 150.625 97.246094 150.625 C 97.246094 150.625 78.921875 141.160156 59.765625 147.140625 C 43.488281 154.335938 38.945312 162.207031 38.945312 162.207031 Z M 38.945312 162.207031 " fill-opacity="1" fill-rule="nonzero"/><path fill="#000000" d="M 167.359375 146.003906 C 167.359375 146.003906 160.394531 142.445312 149.339844 143.128906 C 138.285156 143.808594 129.121094 148.429688 124.429688 155.773438 C 121.398438 160.46875 121.625 166.070312 125.941406 168.191406 C 136.695312 173.492188 142.675781 165.617188 145.628906 163.796875 C 153.730469 158.726562 160.167969 157.210938 166.300781 157.742188 C 173.417969 158.195312 174.628906 150.851562 167.359375 146.003906 Z M 167.359375 146.003906 " fill-opacity="1" fill-rule="nonzero"/><path fill="#000000" d="M 177.65625 141.160156 C 177.203125 140.554688 168.570312 128.058594 154.488281 124.878906 C 140.632812 121.777344 121.855469 131.695312 115.191406 140.097656 C 115.191406 142.371094 118.445312 147.140625 118.445312 147.140625 C 118.445312 147.140625 133.210938 132.753906 153.277344 132.832031 C 171.070312 134.949219 177.65625 141.160156 177.65625 141.160156 Z M 177.65625 141.160156 " fill-opacity="1" fill-rule="nonzero"/><path fill="#000000" d="M 70.898438 207.03125 C 70.898438 207.03125 94.140625 246.859375 107.011719 254.886719 C 119.355469 262.53125 138.585938 255.113281 144.039062 247.769531 C 148.882812 241.257812 163.496094 193.175781 163.496094 193.175781 C 163.496094 193.175781 146.839844 213.394531 119.886719 217.785156 C 106.332031 219.90625 70.898438 207.03125 70.898438 207.03125 Z M 70.898438 207.03125 " fill-opacity="1" fill-rule="nonzero"/></svg>